<?xml version="1.0" standalone="no"?>
<!DOCTYPE svg PUBLIC "-//W3C//DTD SVG 20010904//EN"
 "http://www.w3.org/TR/2001/REC-SVG-20010904/DTD/svg10.dtd">
<svg version="1.0" xmlns="http://www.w3.org/2000/svg"
 width="894.000000pt" height="279.000000pt" viewBox="0 0 894.000000 279.000000"
 preserveAspectRatio="xMidYMid meet">

<g transform="translate(0.000000,279.000000) scale(0.100000,-0.100000)"
fill="#DC2626" stroke="none">
<path d="M1135 1970 c-4 -6 8 -10 29 -10 69 0 66 24 66 -534 0 -475 -1 -504
-18 -519 -10 -10 -34 -17 -52 -17 -18 0 -30 -3 -27 -6 10 -11 196 -13 203 -3
3 5 -11 9 -30 9 -67 0 -65 -12 -66 521 0 271 4 480 9 483 5 3 105 -226 222
-509 146 -352 218 -514 228 -513 7 2 59 121 120 278 59 151 150 384 202 518
51 133 97 242 101 242 5 0 8 -219 8 -488 0 -545 2 -532 -66 -532 -19 0 -33 -4
-30 -9 7 -11 311 -9 322 2 4 4 -7 7 -25 7 -18 0 -41 5 -52 10 -18 10 -19 27
-19 523 0 386 3 516 12 525 7 7 29 12 51 12 23 0 36 4 32 10 -4 6 -55 10 -119
10 l-113 0 -179 -460 c-98 -253 -183 -459 -188 -457 -8 3 -45 88 -265 620
l-124 297 -113 0 c-64 0 -115 -4 -119 -10z"/>
<path d="M2430 1970 c0 -5 13 -10 28 -10 16 0 35 -6 44 -12 9 -7 87 -147 172
-311 l156 -297 0 -213 c0 -152 -3 -216 -12 -225 -7 -7 -28 -12 -47 -12 -26 -1
-32 -3 -21 -9 19 -11 310 -10 310 1 0 4 -15 8 -33 8 -18 0 -38 5 -45 12 -9 9
-12 76 -12 240 l0 229 142 276 c78 152 150 285 160 295 11 11 32 18 54 18 21
0 33 4 29 10 -8 13 -205 13 -205 1 0 -6 17 -11 38 -13 28 -2 38 -8 40 -23 2
-21 -257 -536 -272 -539 -12 -2 -276 517 -273 539 1 15 11 21 40 23 20 2 37 7
37 13 0 5 -69 9 -165 9 -103 0 -165 -4 -165 -10z"/>
<path d="M3430 1970 c0 -5 15 -10 34 -10 68 0 66 13 66 -535 0 -549 2 -535
-66 -535 -20 0 -33 -4 -29 -9 7 -13 347 -12 366 0 9 6 -9 9 -52 9 -37 0 -70 5
-77 12 -9 9 -12 84 -12 276 l0 264 120 -4 c114 -3 121 -4 146 -29 18 -18 28
-41 31 -73 11 -97 23 -39 23 114 0 100 -4 160 -10 160 -5 0 -10 -16 -10 -35 0
-90 -43 -115 -194 -115 l-106 0 0 238 c0 172 3 241 12 250 16 16 272 16 319 0
86 -29 126 -87 133 -194 8 -119 16 -81 16 74 l0 152 -355 0 c-230 0 -355 -4
-355 -10z"/>
<path d="M6116 1969 c-86 -10 -167 -40 -227 -84 -96 -70 -136 -224 -90 -347
38 -100 117 -156 325 -230 196 -69 246 -108 246 -190 0 -88 -59 -154 -163
-183 -103 -29 -227 -1 -277 62 -27 34 -25 66 5 111 67 98 -11 203 -119 158
-47 -19 -71 -71 -62 -133 21 -154 187 -263 397 -263 163 1 303 53 386 144 106
116 109 267 7 376 -55 59 -141 105 -299 160 -209 73 -255 108 -255 195 0 113
84 175 239 175 59 0 87 -6 128 -24 78 -37 92 -77 48 -142 -35 -51 -33 -97 4
-135 65 -64 168 -22 178 74 15 129 -113 247 -297 276 -72 12 -75 12 -174 0z"/>
<path d="M4896 1907 c-20 -35 -36 -68 -36 -74 0 -5 83 -153 185 -329 l185
-319 -178 -3 -178 -2 -38 -66 c-21 -36 -36 -68 -33 -70 2 -2 152 -3 333 -2
l330 3 -69 120 c-38 66 -82 145 -99 175 -17 30 -34 60 -38 65 -8 10 -252 433
-298 515 -13 25 -26 46 -27 48 -2 2 -19 -25 -39 -61z"/>
<path d="M6737 1953 c-19 -19 -5 -41 29 -46 20 -3 45 -14 55 -23 18 -16 19
-40 19 -459 0 -352 -3 -445 -13 -459 -8 -10 -31 -21 -53 -25 -30 -5 -39 -11
-39 -26 0 -19 7 -20 240 -20 233 0 240 1 240 20 0 16 -8 21 -35 23 -69 7 -70
9 -70 259 l0 223 215 0 215 0 0 -223 c0 -250 -1 -252 -70 -259 -27 -2 -35 -7
-35 -23 0 -19 7 -20 240 -20 233 0 240 1 240 20 0 15 -9 21 -39 26 -22 4 -45
15 -53 25 -10 14 -13 108 -13 460 0 494 -4 468 71 480 28 5 39 11 39 24 0 10
-7 21 -16 24 -25 10 -447 7 -463 -3 -23 -15 -5 -38 34 -44 66 -11 65 -8 65
-233 l0 -204 -215 0 -215 0 0 204 c0 151 3 206 13 214 6 6 29 13 50 17 43 8
54 20 37 40 -10 12 -53 15 -240 15 -124 0 -230 -3 -233 -7z"/>
<path d="M4763 1678 c-39 -67 -121 -211 -183 -318 -88 -151 -214 -372 -277
-482 -2 -5 31 -8 75 -8 l79 0 28 53 c47 86 336 581 344 590 5 5 47 -59 95
-142 l87 -151 79 0 78 0 -155 268 c-85 147 -160 278 -167 290 -12 23 -16 18
-83 -100z"/>
<path d="M4777 1359 c-156 -268 -277 -479 -277 -484 0 -3 240 -5 534 -5 l534
0 -40 70 -41 70 -373 0 c-206 0 -374 2 -374 5 0 3 38 72 85 154 l86 148 -40
68 -39 68 -55 -94z"/>
</g>
</svg>
